<svg xmlns="http://www.w3.org/2000/svg" viewBox="0 0 180 180" fill="none">
  <style>
    @media (prefers-color-scheme: light) {
      .bg { fill: #1a1a2e; }
      .gear { fill: #e8b84b; }
    }
    @media (prefers-color-scheme: dark) {
      .bg { fill: #1a1a2e; }
      .gear { fill: #e8b84b; }
    }
  </style>
  <rect class="bg" width="180" height="180" rx="37"/>
  <!-- Outer gear teeth -->
  <path class="gear" d="
    M90 20
    L100 20 L105 35
    A55 55 0 0 1 120 42
    L134 36 L141 44
    L133 57
    A55 55 0 0 1 145 72
    L160 74 L160 84
    L145 89
    A55 55 0 0 1 142 105
    L152 117 L145 125
    L132 118
    A55 55 0 0 1 118 128
    L116 143 L106 143
    L101 128
    A55 55 0 0 1 86 126
    L73 135 L65 128
    L72 114
    A55 55 0 0 1 62 100
    L47 97 L47 87
    L62 82
    A55 55 0 0 1 65 67
    L56 55 L63 47
    L77 54
    A55 55 0 0 1 92 44
    Z
  "/>
  <!-- Inner circle cutout -->
  <circle class="bg" cx="90" cy="85" r="30"/>
</svg>
